<svg xmlns="http://www.w3.org/2000/svg" width="407" height="407">
    <path d="M145.8 243.5 47.4 73.1A202.6 202.6 0 0 0 4 243.5h141.8zM140 173.4 238.5 3A203.9 203.9 0 0 0 69.2 50.8L140 173.4zM197.8 133.5h196.8a204.5 204.5 0 0 0-126-122.8l-70.8 122.8zM267 233.6 168.5 404a204 204 0 0 0 169.3-47.8L267 233.6zM209.2 273.5H12.4a204.5 204.5 0 0 0 126 122.8l70.8-122.8zM261.2 163.5l98.4 170.4A202.6 202.6 0 0 0 403 163.5H261.2z"
          fill="#1e40af"/>
    <path fill="#2563eb" fill-rule="evenodd"
          d="m296.5 3608.6-4-2.5c-.7-.4-1.5.2-1.5 1v4.8c0 .9.8 1.4 1.5 1l4-2.5c.7-.4.7-1.4 0-1.8"
          transform="matrix(16.747 0 0 16.747 -4708.3 -60243.4)"/>
</svg>